# xmcd CD database file
#
# Track frame offsets:
#	150
#	20074
#	40544
#	61315
#	79721
#	101630
#	126196
#	145647
#	167927
#	191385
#	215004
#	236269
#	253334
#	272340
#	292312
#
# Disc length: 4200 seconds
#
# Revision: 0
# Processed by: cddbd v1.5.1PL2 Copyright (c) Steve Scherf et al.
# Submitted via: CDex 1.51
#
DISCID=d910660f
DTITLE=アキハバラ電脳組 - アキハバラ電脳組ベストヴォーカルアルバム
DYEAR=2005
DGENRE=Anime
TTITLE0=Ｂｉｒｔｈ／奥井雅美
TTITLE1=太陽の花／奥井雅美
TTITLE2=恋しましょねばりましょ／かかずゆみ
TTITLE3=シンシア・愛する人／岡崎律子
TTITLE4=朱−ＡＫＡ−／奥井雅美
TTITLE5=LADYCOMMANDERS／本田千恵子・玉川紗己子・かかずゆみ
TTITLE6=恋しましょねばりましょ（TSUGUMIX）／淺川悠
TTITLE7=誰よりもきっとしあわせになれるね／島涼香
TTITLE8=Go for　dream〜夢の扉をあけて〜／島涼香・吉住梢・淺川悠
TTITLE9=ラストシーン／奥井雅美
TTITLE10=HOT　SPICE／奥井雅美
TTITLE11=ほめてほめてほめて／吉住梢
TTITLE12=恋しましょねばりましょ（T・H・S・MIX）／島涼香・吉住梢・淺川悠
TTITLE13=Birth（T・H・S・MIX）／島涼香・吉住梢・淺川悠
TTITLE14=Luckyｇｉｒｌ／島涼香＆かかずゆみ
EXTD=YEAR: 2005
EXTT0=
EXTT1=
EXTT2=
EXTT3=
EXTT4=
EXTT5=
EXTT6=
EXTT7=
EXTT8=
EXTT9=
EXTT10=
EXTT11=
EXTT12=
EXTT13=
EXTT14=
PLAYORDER=
